<svg width="64" height="76" viewBox="0 0 64 76" fill="none" xmlns="http://www.w3.org/2000/svg">
<path d="M31.8979 27.8623C30.4499 27.8623 29.0125 28.1102 27.6482 28.5953L5.39771 36.5064L31.8979 46.5787L32.2656 46.2927V27.8702C32.143 27.8666 32.0205 27.8623 31.8979 27.8623Z" fill="#05858D"/>
<path d="M17.9305 32.0504L5.39771 36.5064L17.7888 41.216C15.0002 38.8448 15.0625 34.338 17.9305 32.0504Z" fill="#05858D"/>
<path d="M36.1477 28.5953C34.7833 28.1102 33.346 27.8623 31.8979 27.8623V46.4303L58.3981 36.5064L36.1477 28.5953Z" fill="#0296E5"/>
<path d="M31.8979 45.9849L27.4168 51.2808C27.0454 51.7937 26.3798 51.9997 25.7835 51.7864L5.39771 44.4949V64.1288C5.39771 65.2927 6.12907 66.331 7.22501 66.7231L28.3073 74.2637C29.4595 74.6758 30.6741 74.8866 31.8977 74.8866C32.0204 74.8866 32.143 74.8828 32.2654 74.8787V46.4316L31.8979 45.9849Z" fill="#0296E5"/>
<path d="M10.7032 65.6451V46.3924L5.39795 44.4948V64.1287C5.39795 65.2926 6.12932 66.3309 7.22525 66.7229L11.9967 68.4296C11.1934 67.7496 10.7032 66.7402 10.7032 65.6451Z" fill="#05858D"/>
<path d="M38.0124 51.9348C37.4161 52.1482 36.7506 51.9421 36.3791 51.4293L31.8979 45.9851V74.8865C33.1217 74.8865 34.3362 74.6759 35.4886 74.2637L56.5708 66.7231C57.6668 66.331 58.3981 65.2927 58.3981 64.1288V44.6433L38.0124 51.9348Z" fill="#0296E5"/>
<path d="M44.3957 4.42223C43.1638 3.7921 42.1575 2.78404 41.5302 1.5505C41.3939 1.28257 41.1203 1.1123 40.8197 1.1123C40.519 1.1123 40.2456 1.28257 40.1093 1.5505C39.482 2.78404 38.4757 3.79195 37.2438 4.42223C36.9767 4.55879 36.8074 4.83178 36.8074 5.13177V5.15137C36.8074 5.4481 36.9715 5.72197 37.2359 5.85691C38.4638 6.48318 39.4676 7.48455 40.0968 8.71067C40.2319 8.97401 40.5053 9.13729 40.8013 9.13729H40.8384C41.1344 9.13729 41.4078 8.97401 41.5429 8.71067C42.1722 7.48455 43.1759 6.48318 44.4038 5.85691C44.6682 5.72212 44.8324 5.44825 44.8324 5.15137V5.13177C44.8321 4.83192 44.6627 4.55894 44.3957 4.42223Z" fill="#FFE02F"/>
<path d="M26.4297 7.71343C25.5077 7.24184 24.7547 6.48748 24.2852 5.56435C24.1832 5.36381 23.9785 5.23645 23.7535 5.23645C23.5284 5.23645 23.3237 5.36381 23.2218 5.56435C22.7523 6.48748 21.9992 7.24184 21.0773 7.71343C20.8775 7.8157 20.7507 8.01995 20.7507 8.24439V8.25908C20.7507 8.48115 20.8736 8.68614 21.0715 8.78708C21.9905 9.25569 22.7417 10.0052 23.2126 10.9228C23.3137 11.1199 23.5183 11.2421 23.7398 11.2421H23.7676C23.989 11.2421 24.1937 11.1199 24.2948 10.9228C24.7657 10.0052 25.5169 9.25569 26.4359 8.78708C26.6338 8.68614 26.7567 8.48115 26.7567 8.25908V8.24439C26.7562 8.01995 26.6295 7.8157 26.4297 7.71343Z" fill="#FFEA7E"/>
<path d="M40.2417 5.85691C39.9773 5.72212 39.8132 5.44825 39.8132 5.15137V5.13177C39.8132 4.83178 39.9825 4.55879 40.2496 4.42223C41.0503 4.01268 41.7548 3.44267 42.3227 2.75569C42.0168 2.38563 41.7499 1.98231 41.5302 1.5505C41.3939 1.28257 41.1203 1.1123 40.8197 1.1123C40.5191 1.1123 40.2456 1.28257 40.1093 1.5505C39.482 2.78404 38.4757 3.79195 37.2438 4.42223C36.9767 4.55879 36.8074 4.83178 36.8074 5.13177V5.15137C36.8074 5.4481 36.9715 5.72197 37.2359 5.85691C38.4638 6.48318 39.4676 7.48455 40.0968 8.71067C40.2319 8.97401 40.5053 9.13729 40.8013 9.13729H40.8384C41.1344 9.13729 41.4078 8.97401 41.5429 8.71067C41.7601 8.28762 42.0227 7.89202 42.3228 7.52864C41.753 6.83899 41.0458 6.26705 40.2417 5.85691Z" fill="#FBC700"/>
<path d="M23.6691 8.78708C23.4712 8.68614 23.3485 8.48115 23.3485 8.25908V8.24439C23.3485 8.01995 23.4753 7.81555 23.6751 7.71343C24.1959 7.44698 24.6601 7.08776 25.0526 6.66145C24.7503 6.33311 24.4897 5.96602 24.2854 5.56435C24.1835 5.36381 23.9788 5.23645 23.7537 5.23645C23.5287 5.23645 23.324 5.36381 23.222 5.56435C22.7525 6.48748 21.9995 7.24184 21.0775 7.71343C20.8777 7.8157 20.751 8.01995 20.751 8.24439V8.25908C20.751 8.48115 20.8739 8.68614 21.0716 8.78708C21.9906 9.25569 22.7418 10.0052 23.2127 10.9228C23.3138 11.1199 23.5185 11.2421 23.7399 11.2421H23.7677C23.9892 11.2421 24.1938 11.1199 24.2949 10.9228C24.4977 10.5278 24.7551 10.1664 25.0527 9.84261C24.6586 9.41437 24.1924 9.05397 23.6691 8.78708Z" fill="#FFE02F"/>
<path d="M62.3924 42.0212L58.3979 36.5065L31.8977 45.985L36.3788 52.1714C36.7504 52.6842 37.4158 52.8903 38.0121 52.677L61.7185 44.1978C62.6125 43.8782 62.9494 42.7899 62.3924 42.0212Z" fill="#0296E5"/>
<path d="M1.40334 42.0212L5.39787 36.5065L31.898 45.985L27.4169 52.1714C27.0454 52.6842 26.3799 52.8903 25.7836 52.677L2.07711 44.1978C1.1832 43.8782 0.846387 42.7899 1.40334 42.0212Z" fill="#0296E5"/>
<path d="M5.69204 43.5973L9.71077 38.0492L5.39768 36.5065L1.4033 42.0212C0.846355 42.79 1.18331 43.8782 2.07707 44.1979L5.78482 45.5241C5.32925 45.0053 5.24924 44.2088 5.69204 43.5973Z" fill="#05858D"/>
<path d="M4.59823 35.8535L0.603844 41.368C-0.388777 42.7383 0.210032 44.6759 1.80443 45.246L4.3867 46.1696V64.1287C4.3867 65.7586 5.41777 67.2225 6.95249 67.7713L28.0346 75.3119C30.5556 76.2138 33.3581 76.2446 35.9655 75.3119L57.0477 67.7713C58.5824 67.2225 59.6135 65.7586 59.6135 64.1287V58.4463C59.6135 57.8313 59.1152 57.333 58.5002 57.333C57.8852 57.333 57.3869 57.8313 57.3869 58.4463V64.1287C57.3869 64.8204 56.9493 65.4418 56.2979 65.6749L35.2155 73.2155C34.5324 73.4598 33.8288 73.6247 33.1133 73.7085V49.4197L35.5795 52.8244C36.2325 53.7264 37.431 54.1042 38.4895 53.7253C39.6694 53.3032 56.8648 47.1529 57.387 46.966V53.2507C57.387 53.8657 57.8854 54.364 58.5004 54.364C59.1153 54.364 59.6137 53.8657 59.6137 53.2507V46.1696L62.1959 45.246C63.7891 44.6762 64.3897 42.7389 63.3962 41.3679L63.3964 41.368L59.402 35.8535C59.2881 35.696 59.0885 35.534 58.8732 35.4576L49.223 32.0265C48.6435 31.8201 48.007 32.123 47.8011 32.7025C47.595 33.2819 47.8977 33.9184 48.4771 34.1245L55.1857 36.5097L33.1132 44.4044V29.0289C34.0546 29.1196 34.9803 29.3255 35.8767 29.6444L43.5542 32.3742C44.1335 32.5805 44.7702 32.2777 44.9761 31.6982C45.1821 31.1188 44.8795 30.4823 44.3001 30.2763L36.6226 27.5465C33.7074 26.5098 30.4435 26.456 27.3771 27.5465L5.12682 35.4576C4.91455 35.5332 4.71757 35.6887 4.59823 35.8535ZM2.40695 42.6743L5.91133 37.8361L30.2278 46.5335C29.4026 47.6726 30.1221 46.6795 26.6171 51.5184C26.5365 51.6296 26.3894 51.6747 26.2606 51.6288C25.8464 51.4807 2.9872 43.3045 2.5542 43.1496C2.35871 43.0796 2.28508 42.8425 2.40695 42.6743ZM7.70212 65.6749C7.05076 65.442 6.61316 64.8204 6.61316 64.1287V46.966L25.5108 53.7253C26.5791 54.1075 27.7689 53.7171 28.4156 52.8309C28.4173 52.8287 28.4191 52.8268 28.4207 52.8245C28.4207 52.8244 28.4207 52.8244 28.4207 52.8244L30.8867 49.4197V73.7083C30.1712 73.6246 29.4675 73.4597 28.7844 73.2155L7.70212 65.6749ZM61.5931 42.6743C61.7148 42.8424 61.6412 43.0796 61.446 43.1496C61.2232 43.2293 37.9737 51.545 37.7396 51.6287C37.6108 51.675 37.4635 51.6297 37.3829 51.5184L33.7721 46.5335L58.0887 37.8361L61.5931 42.6743ZM28.1232 29.6444C29.0196 29.3257 29.9452 29.1198 30.8866 29.0289V44.4044C29.9318 44.0628 9.6743 36.8173 8.81423 36.5096L28.1232 29.6444Z" fill="#252836"/>
<path d="M33.1131 23.2002V9.2864C33.1131 8.67141 32.6148 8.1731 31.9998 8.1731C31.3848 8.1731 30.8865 8.67141 30.8865 9.2864V23.2C30.8865 23.815 31.3848 24.3133 31.9998 24.3133C32.6148 24.3133 33.1131 23.815 33.1131 23.2002Z" fill="#FF8700"/>
<path d="M46.7414 11.4147C46.4235 11.5538 38.9403 14.9262 37.703 24.2024C37.6143 24.8685 38.1317 25.463 38.808 25.463C39.3574 25.463 39.8355 25.0562 39.9102 24.4966C40.3566 21.1494 41.7816 18.2802 44.1457 15.9687C45.9222 14.2315 47.5982 13.4706 47.6358 13.4539C48.1975 13.2067 48.4535 12.5513 48.2076 11.9887C47.9613 11.4254 47.3054 11.1686 46.7414 11.4147Z" fill="#FF8700"/>
<path d="M44.4791 26.5806C44.1736 27.1142 44.3586 27.7944 44.8922 28.0997C45.4251 28.4049 46.1057 28.2207 46.4113 27.6866C48.9972 23.1693 52.8382 21.4058 55.6053 20.7221C56.2022 20.5745 56.5665 19.971 56.4189 19.3741C56.2714 18.7772 55.6677 18.4126 55.0709 18.5605C52.4603 19.2059 47.613 21.1056 44.4791 26.5806Z" fill="#FF8700"/>
<path d="M15.7922 11.9887C15.546 12.5521 15.8029 13.2085 16.3663 13.4549C16.4326 13.4838 23.0165 16.4504 24.0896 24.4968C24.1711 25.1082 24.7331 25.5344 25.3404 25.4532C25.9499 25.3718 26.378 24.8119 26.2968 24.2024C25.0595 14.9262 17.5762 11.5536 17.2582 11.4147C16.6949 11.1686 16.0388 11.4255 15.7922 11.9887Z" fill="#FF8700"/>
<path d="M7.58107 19.3741C7.43367 19.971 7.79795 20.5746 8.39468 20.7221C11.1618 21.406 15.0029 23.1695 17.5886 27.6866C17.8943 28.2207 18.5749 28.4051 19.1078 28.0998C19.6414 27.7943 19.8264 27.1141 19.5209 26.5806C16.3871 21.1057 11.5395 19.2058 8.92906 18.5605C8.33174 18.4128 7.72862 18.7776 7.58107 19.3741Z" fill="#FF8700"/>
<path d="M52.377 11.3214C51.762 11.3214 51.2637 11.8197 51.2637 12.4347C51.2637 13.0497 51.762 13.548 52.377 13.548H53.1522V14.3233C53.1522 14.9382 53.6505 15.4365 54.2655 15.4365C54.8805 15.4365 55.3788 14.9382 55.3788 14.3233V13.548H56.1541C56.7691 13.548 57.2674 13.0497 57.2674 12.4347C57.2674 11.8197 56.7691 11.3214 56.1541 11.3214H55.3788V10.5463C55.3788 9.93129 54.8805 9.43298 54.2655 9.43298C53.6505 9.43298 53.1522 9.93129 53.1522 10.5463V11.3214H52.377Z" fill="#FF8700"/>
<path d="M7.54848 26.749H6.77319C6.15822 26.749 5.65991 27.2473 5.65991 27.8623C5.65991 28.4773 6.15822 28.9756 6.77319 28.9756H7.54848V29.7509C7.54848 30.3659 8.04679 30.8642 8.66176 30.8642C9.27674 30.8642 9.77504 30.3659 9.77504 29.7509V28.9756H10.5503C11.1653 28.9756 11.6636 28.4773 11.6636 27.8623C11.6636 27.2473 11.1653 26.749 10.5503 26.749H9.77504V25.9738C9.77504 25.3588 9.27674 24.8605 8.66176 24.8605C8.04679 24.8605 7.54848 25.3588 7.54848 25.9738V26.749Z" fill="#FF8700"/>
<path d="M45.0049 3.43129C43.9875 2.91071 43.1421 2.06356 42.6246 1.04586C41.9148 -0.348742 39.9288 -0.348594 39.219 1.04615C38.7016 2.06356 37.8561 2.91086 36.8389 3.43115C35.445 4.14396 35.4544 6.14612 36.8322 6.84869C37.8451 7.36526 38.6892 8.20707 39.2084 9.21913C39.915 10.5958 41.9287 10.5961 42.6355 9.21899C43.1547 8.20722 43.9987 7.36541 45.0118 6.84854C46.3891 6.14612 46.399 4.14455 45.0049 3.43129ZM40.9217 7.72493C40.2825 6.67516 39.3885 5.78111 38.3387 5.14177C39.3889 4.50259 40.2827 3.60942 40.9219 2.56039C41.5612 3.60942 42.4548 4.50259 43.5047 5.14177C42.4551 5.78111 41.561 6.67501 40.9217 7.72493Z" fill="#252836"/>
<path d="M22.3239 11.4314C22.9564 12.6634 24.7546 12.6654 25.3872 11.4314C25.7491 10.726 26.3374 10.1392 27.0435 9.77909C28.268 9.15475 28.2949 7.36545 27.0392 6.72255C27.0391 6.72241 27.0389 6.72241 27.0388 6.72226C26.3297 6.35962 25.7405 5.76927 25.3796 5.05972C24.7451 3.81208 22.9665 3.81179 22.3314 5.05987C21.9707 5.76912 21.3816 6.35962 20.6716 6.7227C19.4345 7.35639 19.4251 9.14555 20.6677 9.77909C21.3737 10.1391 21.962 10.726 22.3239 11.4314ZM23.8555 6.82795C24.2473 7.37703 24.731 7.8605 25.2805 8.25208C24.7313 8.64382 24.2473 9.12759 23.8555 9.67711C23.4637 9.12788 22.98 8.64382 22.4306 8.25208C22.9801 7.86035 23.4639 7.37703 23.8555 6.82795Z" fill="#252836"/>
</svg>
