<svg width="76" height="76" viewBox="0 0 76 76" fill="none" xmlns="http://www.w3.org/2000/svg">
<g clip-path="url(#clip0_2_1217)">
<path fill-rule="evenodd" clip-rule="evenodd" d="M46.3137 7.42163C34.0173 7.42163 24.049 17.3898 24.049 29.6863C24.049 41.9828 34.0172 51.951 46.3137 51.951C46.856 51.951 47.3939 51.9315 47.9264 51.8935C47.8841 51.6764 47.862 51.4531 47.862 51.2254C47.862 49.2717 49.4603 47.6734 51.4139 47.6734H52.18C52.18 43.7501 55.3604 40.5695 59.2839 40.5695C61.2781 40.5695 63.0803 41.3912 64.3703 42.7146C67.0178 39.0516 68.5781 34.5513 68.5781 29.6865C68.5784 17.39 58.6102 7.42163 46.3137 7.42163Z" fill="#12CDD9"/>
<path fill-rule="evenodd" clip-rule="evenodd" d="M24.0491 29.6863C24.0491 17.3898 34.0173 7.42161 46.3138 7.42161C58.6103 7.42161 68.5785 17.3898 68.5785 29.6863C68.5785 34.5512 67.0182 39.0516 64.3708 42.7143C64.7548 43.1082 65.0935 43.5466 65.3785 44.0209C65.7678 43.9136 66.1777 43.856 66.601 43.856C67.8751 43.856 69.028 44.3754 69.8591 45.2142C72.802 40.7608 74.5156 35.4239 74.5156 29.6865C74.5156 14.111 61.8892 1.4845 46.3137 1.4845C38.3028 1.4845 31.072 4.82465 25.9379 10.1882C23.5916 12.6393 21.6834 15.5129 20.3388 18.6835C18.9049 22.0644 18.1117 25.7827 18.1117 29.6865C18.1117 35.8974 20.1195 41.6395 23.5214 46.2989C25.2486 48.6645 27.3351 50.751 29.7005 52.4783C34.3602 55.8803 40.1024 57.8883 46.3137 57.8883C50.9573 57.8883 55.3387 56.7656 59.2018 54.7773C56.5982 54.7773 53.9946 54.7773 51.3908 54.7773C49.6817 54.7773 48.2422 53.5159 47.9264 51.8934C47.394 51.9316 46.856 51.951 46.3137 51.951C34.0173 51.951 24.0491 41.9828 24.0491 29.6863Z" fill="#FF8700"/>
<path fill-rule="evenodd" clip-rule="evenodd" d="M20.3387 18.6833C21.6835 15.5127 23.5917 12.6391 25.9379 10.188C25.165 8.74438 23.6425 7.76206 21.8906 7.76206C21.4671 7.76206 21.0573 7.81965 20.6681 7.92696C19.4262 5.85902 17.1616 4.47534 14.5738 4.47534C10.6503 4.47534 7.46987 7.65593 7.46987 11.5793H6.70382C4.75016 11.5793 3.15186 13.1776 3.15186 15.1312C3.15186 17.0619 4.74289 18.6832 6.68051 18.6832H20.3387V18.6833Z" fill="#12CDD9"/>
<path fill-rule="evenodd" clip-rule="evenodd" d="M59.284 40.5693C55.3605 40.5693 52.1801 43.7499 52.1801 47.6733H51.414C49.4604 47.6733 47.8621 49.2716 47.8621 51.2252C47.8621 51.4529 47.8842 51.6764 47.9265 51.8933C48.2423 53.5156 49.6817 54.7772 51.3909 54.7772H59.2019H71.1762C73.013 54.7772 74.5159 53.2743 74.5159 51.4375C74.5159 49.6005 73.0132 48.0978 71.1762 48.0978C71.0925 46.9759 70.6053 45.9664 69.8595 45.2139C69.0281 44.3753 67.8754 43.8559 66.6012 43.8559C66.1778 43.8559 65.768 43.9135 65.3788 44.0208C65.0939 43.5464 64.7552 43.1081 64.3711 42.7142C63.0805 41.391 61.2783 40.5693 59.284 40.5693Z" fill="#12CDD9"/>
<path fill-rule="evenodd" clip-rule="evenodd" d="M23.8814 58.5507L17.4489 52.1183L2.93873 66.0238C1.00333 67.9592 1.00333 71.126 2.93873 73.0614C4.87413 74.9968 8.04092 74.9968 9.97631 73.0614L23.8814 58.5507Z" fill="#FF8700"/>
<path fill-rule="evenodd" clip-rule="evenodd" d="M17.449 52.1184L23.8814 58.5508L29.7006 52.4782C27.3351 50.7509 25.2487 48.6644 23.5216 46.2988L17.449 52.1184Z" fill="#FFC144"/>
<path d="M38.8928 31.1708C39.7126 31.1708 40.3772 30.5062 40.3772 29.6864C40.3772 28.8666 39.7126 28.202 38.8928 28.202H38.8918C38.072 28.202 37.4078 28.8666 37.4078 29.6864C37.4078 30.5062 38.073 31.1708 38.8928 31.1708Z" fill="black"/>
<path d="M46.3143 31.1708C47.1341 31.1708 47.7987 30.5062 47.7987 29.6864C47.7987 28.8666 47.1341 28.202 46.3143 28.202H46.3133C45.4935 28.202 44.8293 28.8666 44.8293 29.6864C44.8293 30.5062 45.4945 31.1708 46.3143 31.1708Z" fill="black"/>
<path d="M53.7359 31.1708C54.5558 31.1708 55.2203 30.5062 55.2203 29.6864C55.2203 28.8666 54.5558 28.202 53.7359 28.202H53.7349C52.9151 28.202 52.251 28.8666 52.251 29.6864C52.251 30.5062 52.9161 31.1708 53.7359 31.1708Z" fill="black"/>
<path d="M72.4413 46.7819C72.2706 46.1852 72.0103 45.6263 71.6764 45.1203C74.5081 40.4772 75.9999 35.1628 75.9999 29.6864C75.9999 13.3174 62.6827 0.00012207 46.3137 0.00012207C38.5088 0.00012207 31.3978 3.02768 26.0933 7.97015C24.9757 6.90174 23.4711 6.27803 21.8906 6.27803C21.7092 6.27803 21.5283 6.28605 21.3484 6.30208C19.7331 4.23814 17.2221 2.99131 14.5738 2.99131C10.3319 2.99131 6.79853 6.0821 6.10788 10.1303C3.61052 10.4259 1.6674 12.5561 1.6674 15.1315C1.6674 17.9085 3.91614 20.1678 6.68038 20.1678H18.1923C17.1777 23.1571 16.6274 26.3586 16.6274 29.6864C16.6274 35.7492 18.4543 41.3934 21.5865 46.0973L1.91172 64.9521C1.90415 64.9594 1.89658 64.9668 1.88916 64.9742C-0.62972 67.4933 -0.62972 71.5919 1.88916 74.1109C3.1486 75.3704 4.80302 76.0002 6.45744 76.0002C8.11185 76.0002 9.76627 75.3704 11.0257 74.1109C11.0331 74.1035 11.0406 74.0959 11.0478 74.0884L29.902 54.413C34.6063 57.5454 40.2505 59.3726 46.3137 59.3726C50.9708 59.3726 55.4244 58.3261 59.5564 56.2616H71.1759C73.8358 56.2616 75.9999 54.0975 75.9999 51.4376C75.9999 49.2152 74.4895 47.3391 72.4413 46.7819ZM6.68053 17.199C5.57234 17.199 4.63618 16.2522 4.63618 15.1314C4.63618 13.9913 5.56373 13.0637 6.70383 13.0637H7.46989C8.28967 13.0637 8.9542 12.3992 8.9542 11.5794C8.9542 8.48075 11.4752 5.95979 14.5738 5.95979C16.5658 5.95979 18.3683 6.98085 19.3956 8.69138C19.7388 9.26269 20.4205 9.53536 21.0628 9.35798C21.331 9.28407 21.6095 9.24651 21.8906 9.24651C22.6917 9.24651 23.4548 9.5603 24.0247 10.0985C22.1584 12.2197 20.5893 14.6085 19.3831 17.1992H6.68053V17.199ZM8.9165 72.022C7.5542 73.3734 5.34643 73.3699 3.98843 72.0118C2.63028 70.6538 2.62687 68.446 3.97819 67.0836L17.427 54.1953L21.8045 58.5728L8.9165 72.022ZM23.8586 56.4289L19.5706 52.1407L23.3681 48.5014C24.6064 50.0091 25.9903 51.3927 27.4977 52.6313L23.8586 56.4289ZM19.5961 29.6863C19.5961 14.9541 31.5817 2.9686 46.3138 2.9686C61.0459 2.9686 73.0315 14.9541 73.0315 29.6863C73.0315 34.422 71.7927 39.0222 69.4362 43.0806C68.5861 42.6279 67.6195 42.3717 66.601 42.3717C66.5314 42.3717 66.4619 42.3729 66.3926 42.3752C68.7976 38.581 70.0628 34.2206 70.0628 29.6864C70.0628 16.5912 59.409 5.93738 46.3138 5.93738C42.4653 5.93738 38.6409 6.88111 35.2542 8.66659C34.5291 9.04895 34.2511 9.94666 34.6333 10.6719C35.0155 11.397 35.9134 11.6749 36.6386 11.2928C39.6001 9.73114 42.9457 8.90586 46.3137 8.90586C57.772 8.90586 67.0941 18.228 67.0941 29.6863C67.0941 33.5525 66.0433 37.2738 64.0432 40.5322C62.6508 39.6061 60.9962 39.0851 59.2842 39.0851C55.0423 39.0851 51.5088 42.176 50.8183 46.2241C48.5709 46.49 46.7725 48.2417 46.4349 50.4667C46.3962 50.4667 46.3558 50.4667 46.3138 50.4667C34.8555 50.4667 25.5334 41.1446 25.5334 29.6863C25.5334 26.3179 26.3585 22.9726 27.9196 20.0118C28.3019 19.2866 28.0241 18.3889 27.2988 18.0065C26.5738 17.6241 25.6759 17.9021 25.2935 18.6272C23.5084 22.0133 22.5646 25.8374 22.5646 29.6863C22.5646 42.7815 33.2183 53.4353 46.3137 53.4353C46.5327 53.4353 46.7141 53.4347 46.8851 53.4317C47.535 54.7655 48.7546 55.7701 50.2235 56.1235C48.9409 56.3101 47.6365 56.4039 46.3138 56.4039C31.5815 56.4039 19.5961 44.4184 19.5961 29.6863ZM71.1761 53.293H51.3908C50.2826 53.293 49.3464 52.3461 49.3464 51.2253C49.3464 50.0852 50.274 49.1577 51.4141 49.1577H52.1801C52.9999 49.1577 53.6644 48.4931 53.6644 47.6733C53.6644 44.5747 56.1854 42.0537 59.284 42.0537C61.2761 42.0537 63.0785 43.0748 64.1058 44.7852C64.4489 45.3566 65.1306 45.6293 65.773 45.4518C66.0414 45.3777 66.3198 45.3403 66.6008 45.3403C68.2163 45.3403 69.5757 46.6 69.6958 48.2083C69.7535 48.9831 70.399 49.5822 71.1759 49.5822C72.1991 49.5822 73.0313 50.4144 73.0313 51.4376C73.0313 52.4607 72.1991 53.293 71.1761 53.293Z" fill="black"/>
<path d="M30.5701 15.4272C31.39 15.4272 32.0545 14.7627 32.0545 13.9429C32.0545 13.1231 31.39 12.4585 30.5701 12.4585H30.5691C29.7493 12.4585 29.0853 13.1231 29.0853 13.9429C29.0853 14.7627 29.7503 15.4272 30.5701 15.4272Z" fill="black"/>
</g>
<defs>
<clipPath id="clip0_2_1217">
<rect width="76" height="76" fill="white"/>
</clipPath>
</defs>
</svg>
